<svg xmlns="http://www.w3.org/2000/svg" viewBox="-10 -16.7 20.1 33.3"><g fill="#E4BD00" stroke-width="0"><path d="M-7.3 11V8h-.2v3zm-.2 0h-2.3v.3h2.3z"/><path d="M-3.9 8l-5.9 5 .2.1 5.9-4.8zm-3.5 0l-2.2-2.1-.1.2 2 2z"/><path d="M-7.3 3.3l-2.5 2.5.2.2 2.5-2.5zM7.4 8v3h.2V8zm2.4 3H7.6v.3h2.2z"/><path d="M9.8 12.9L4 8l-.2.2L9.7 13zm.2 1.4l-.4-29h.4zm-.4-8.4l-2.1 2 .2.2 2.1-2z"/><path d="M9.9 5.8L7.4 3.3l-.2.2L9.7 6zm-17.2-14v-3h-.3v3zm-2.5-3h2.3v-.2h-2.3z"/><path d="M-9.8-13l5.9 4.8.2-.2-6-4.8zm5.9 4.9h.3v16H-4zM-9.6-6l2.2-2.1-.2-.2-2.1 2zm-.2 0l2.5 2.5.2-.2L-9.6-6z"/><path d="M-3.7-.2l-2.7-2.3L-4-.1l-2.4 2.4L-3.7 0h-.1zm-6.1 0l2.5-2.5.2.2-2.5 2.4L-7 2.3l-.2.2L-9.8 0zm17.2-11v3h.2v-3zm.2 0h2.2v-.2H7.6z"/><path d="M4-8.2L9.8-13l-.1-.2-5.9 4.8zM4 7.9v-16h-.3v16zm3.5-16l2.1 2 .2-.1-2.1-2zm-.1 4.6L9.9-6h-.2L7.2-3.7zM4 0l2.4-2.5L4-.1l2.5 2.4zm3.2-2.5L9.6-.1 7.2 2.3l.2.2L9.9 0h-.3l.3-.2-2.5-2.5zM-9.6 14.3h-.3v-29h.3zm19.4-6V14zm-19.5 0V14zM9.8-8.5v-5.7zm-19.5 0v-5.7z"/><path d="M9.6 14.3v-29.1l.4 29zM-2.5 8.4l1.2 1.3h2.6l1.1-1.3v-17L1.3-9.8h-2.6l-1.2 1.2zm4.8-22.3v5h.2v-5zm-4.8 27.5V8.7h.2v4.9zm4.8 0V8.7h.2v4.9zm-4.8-27.5v5h.2v-5z"/><path d="M-2.6 8.7v4.9h.2V8.7h-.1zm5.1 4.9V8.7v4.9zm-4.9 0V8.7v4.9zm4.7-4.9v4.9-4.9zm-4.2-.8v-16h3.7v16z"/><path d="M-2.3 5V-5.3h4.6V5zm4.6 4.7v-.2zm.1-23.1v-.2h-4.8v.2h4.8zM-2.5 9.7v-1h.1v.8l-.1.2h.1zM2.4 12h-4.8v.3h4.8zm0-24.3h-4.8v-.2h4.8z"/><path d="M-2.5 12.1V8.8h.2v5.8h-.2v-.1zm4.8 0V8.8h.2v5.8h-.2v-.1zm-4.8-24.5v3.3h.2v-5.8h-.2v.2zm4.8 0v3.3h.2v-5.8h-.2v.2z"/><path d="M2.4-9h-4.8v-.8h4.8zm0 17.8h-4.8v.8h4.8z"/><path d="M2.6 9h-.3V7.2h.3v1.9zm-4.9 0h-.3V7.2h.3v1.9zm0-18.3h-.3v1.8h.3v-1.8zm4.9 0h-.3v1.8h.3v-1.8z"/><path d="M2.4 7.8V-8h.2V7.8zm-4.9 0V-8h.2V7.8zm-7.2.2v.4H9.8v-.5H-9.7V8z"/><path d="M-9.7-8.2v.2H9.8v-.5H-9.7v.1z"/><path d="M9.5-8.3v-8.3h.2l.1-.1h.3v33.1l-.2.1h-.4V8zm-19.5 0v-8.3h.1l.2-.1h.2v33.1l-.1.1h-.4V8zM9-8v7.5H3.2V-8zM-8.9 7.8V.3h5.7v7.5zm0-15.8v7.5h5.7V-8zM9 7.8V.3H3.2v7.5z"/><path d="M-9.3 6.2H-3v-.3h-6.3v.3z"/><path d="M-8.9 6V.2h-.2V6h.2z"/><path d="M-9.4.3h6.7V0h-6.7v.3z"/><path d="M-3 6V.2h-.3V6h.2zM-9.3-6.4H-3v.4h-6.3v-.2zM9.4.3H2.7V0h6.7v.3zM-9.4-.5h6.7v.4h-6.7v-.2z"/><path d="M-3-6.2v5.9h-.3v-6h.2zm12.3-.2H3.1v.4h6.2v-.2z"/><path d="M8.9-6.2v5.9h.4v-6H9z"/><path d="M9.4-.5H2.7v.4h6.7v-.2z"/><path d="M3-6.2v5.9h.4v-6h-.2zM9.3 6.2H3.1v-.3h6.2v.3z"/><path d="M3 6V.2h.4V6h-.2zm5.9 0V.2h.4V6H9zM-8.9-6.2v5.9h-.2v-6h.2z"/></g></svg>