<svg xmlns="http://www.w3.org/2000/svg" viewBox="-10.0433 -16.7097 20.1401 33.2502" ><g id="0" stroke="black" fill="#E4BD00" stroke-width="0.01"><polygon points="-7.3066,11.0257 -7.3039,8.02864 -7.5493,8.02844 -7.552,11.0254 "/><polygon points="-7.5204,11.0171 -9.7533,11.0145 -9.7536,11.2599 -7.5207,11.2625 "/><polygon points="-3.8994,8.00764 -9.7793,12.8501 -9.6233,13.0395 -3.7434,8.19704 "/><polygon points="-7.4435,7.93734 -9.577,5.89094 -9.7468,6.06804 -7.6134,8.11444 "/><polygon points="-7.3142,3.30934 -9.8154,5.79214 -9.6425,5.96634 -7.1413,3.48354 "/><polygon points="7.3597,8.02864 7.3623,11.0257 7.6077,11.0254 7.6051,8.02844 "/><polygon points="9.809,11.0145 7.5761,11.0171 7.5764,11.2625 9.8093,11.2599 "/><polygon points="9.835,12.8501 3.9551,8.00764 3.7991,8.19704 9.679,13.0395 "/><polygon points="9.9612,14.2898 9.6465,-14.7555 9.9585,-14.7555 "/><polygon points="9.6327,5.89094 7.4992,7.93734 7.6691,8.11444 9.8025,6.06804 "/><polygon points="9.8711,5.79214 7.3699,3.30934 7.197,3.48354 9.6983,5.96634 "/><polygon points="-7.3039,-8.20796 -7.3066,-11.205 -7.552,-11.2048 -7.5493,-8.20776 "/><polygon points="-9.7533,-11.1939 -7.5204,-11.1965 -7.5207,-11.4419 -9.7536,-11.4393 "/><polygon points="-9.7793,-13.0295 -3.8994,-8.18696 -3.7434,-8.37636 -9.6233,-13.2189 "/><polygon points="-3.8776,-8.14106 -3.6322,-8.14116 -3.63,7.90234 -3.6737,7.90234 -3.8754,7.90234 "/><polygon points="-9.577,-6.07026 -7.4435,-8.11656 -7.6134,-8.29366 -9.7468,-6.24736 "/><polygon points="-9.8154,-5.97146 -7.3142,-3.48866 -7.1413,-3.66286 -9.6425,-6.14556 "/><polygon points="-3.7254,-0.191959 -6.3588,-2.52836 -3.9688,-0.0896594 -6.3588,2.34904 -3.7254,0.0126406 -3.8299,-0.0896594 "/><polygon points="-9.8158,-0.192859 -7.3146,-2.69486 -7.141,-2.52136 -9.5719,-0.0896594 -7.141,2.34204 -7.3146,2.51554 -9.8158,0.0135406 -9.7125,-0.0896594 "/><polygon points="7.3623,-11.205 7.3597,-8.20796 7.6051,-8.20776 7.6077,-11.2048 "/><polygon points="7.5761,-11.1965 9.809,-11.1939 9.8093,-11.4393 7.5764,-11.4419 "/><polygon points="3.9551,-8.18696 9.835,-13.0295 9.679,-13.2189 3.7991,-8.37636 "/><polygon points="3.9311,7.90234 3.9334,-8.14106 3.688,-8.14116 3.6857,7.90234 3.7294,7.90234 "/><polygon points="7.4992,-8.11656 9.6327,-6.07026 9.8025,-6.24736 7.6691,-8.29366 "/><polygon points="7.3699,-3.48866 9.8711,-5.97146 9.6983,-6.14556 7.197,-3.66286 "/><polygon points="4.0245,-0.0896594 6.4145,-2.52836 3.8856,-0.0896594 6.4145,2.34904 "/><polygon points="7.1967,-2.52136 9.6276,-0.0896594 7.1967,2.34204 7.3703,2.51554 9.8715,0.0135406 9.6368,-0.0896594 9.8715,-0.192859 7.3703,-2.69486 "/><polygon points="-9.5929,14.2898 -9.9055,14.2898 -9.9028,-14.7555 -9.5908,-14.7555 "/><polygon points="9.8201,8.32454 9.7851,8.32454 9.7851,14.048 9.8201,14.048 "/><polygon points="-9.7336,8.32454 -9.7686,8.32454 -9.7686,14.048 -9.7336,14.048 "/><polygon points="9.8201,-8.50346 9.7851,-8.50346 9.7851,-14.227 9.8201,-14.227 "/><polygon points="-9.7336,-8.50346 -9.7686,-8.50346 -9.7686,-14.227 -9.7336,-14.227 "/><polygon points="9.6486,14.2898 9.6459,-14.1699 9.6459,-14.7555 9.9612,14.2898 "/><polygon points="-2.497,8.40334 -1.3149,9.66894 1.2532,9.66894 2.4353,8.40334 2.4353,-8.61376 1.2532,-9.84616 -1.3149,-9.84616 -2.497,-8.61376 "/><polygon points="2.3445,-13.8624 2.3445,-8.99416 2.546,-8.99416 2.546,-13.8624 "/><polygon points="-2.5362,13.6017 -2.5362,8.73364 -2.3346,8.73364 -2.3346,13.6017 "/><polygon points="2.3445,13.6017 2.3445,8.73364 2.546,8.73364 2.546,13.6017 "/><polygon points="-2.5362,-13.8624 -2.5362,-8.99416 -2.3346,-8.99416 -2.3346,-13.8624 "/><polygon points="-2.5538,8.73064 -2.5538,13.5736 -2.5438,13.5736 -2.3638,13.5736 -2.3638,8.73064 -2.5438,8.73064 "/><polygon points="2.522,13.5736 2.532,8.73064 2.532,13.5736 "/><polygon points="-2.3638,13.5736 -2.3538,8.73064 -2.3538,13.5736 "/><polygon points="2.332,8.73064 2.332,13.5736 2.342,13.5736 2.342,8.73064 "/><polygon points="-1.8836,7.89154 -1.8836,-8.09726 1.8046,-8.09726 1.8046,7.89154 "/><polygon points="-2.2951,4.95824 -2.2951,-5.27086 2.2664,-5.27086 2.2664,4.95824 "/><polygon points="2.342,9.66664 2.332,9.65724 2.332,9.48844 2.342,9.47904 "/><polygon points="2.4452,-13.4169 2.4452,-13.5878 -2.4371,-13.5878 -2.4371,-13.4169 -2.4371,-13.3101 2.4452,-13.3101 "/><polygon points="-2.5438,9.66664 -2.5538,9.65724 -2.5538,9.48844 -2.5538,8.72714 -2.5438,8.71714 -2.3638,8.71714 -2.3638,9.47904 -2.5438,9.66664 -2.3538,9.65724 -2.3638,9.66664 "/><polygon points="2.4452,12.0565 -2.4354,12.0565 -2.4354,12.2581 2.4452,12.2581 "/><polygon points="2.4452,-12.3172 -2.4354,-12.3172 -2.4354,-12.5187 2.4452,-12.5187 "/><polygon points="-2.5362,12.1472 -2.5362,8.80484 -2.3346,8.80484 -2.3346,12.1472 -2.3346,14.4662 -2.3346,14.6375 -2.5362,14.6375 -2.5362,14.4662 "/><polygon points="2.3445,12.1472 2.3445,8.80484 2.546,8.80484 2.546,12.1472 2.546,14.4662 2.546,14.6375 2.3445,14.6375 2.3445,14.4662 "/><polygon points="-2.5362,-12.4079 -2.5362,-9.06546 -2.3346,-9.06546 -2.3346,-12.4079 -2.3346,-14.7268 -2.3346,-14.8982 -2.5362,-14.8982 -2.5362,-14.7268 "/><polygon points="2.3445,-12.4079 2.3445,-9.06546 2.546,-9.06546 2.546,-12.4079 2.546,-14.7268 2.546,-14.8982 2.3445,-14.8982 2.3445,-14.7268 "/><polygon points="2.4486,-9.07376 -2.4316,-9.07376 -2.4316,-9.81896 2.4486,-9.81896 "/><polygon points="2.4486,8.81314 -2.4316,8.81314 -2.4316,9.55844 2.4486,9.55844 "/><polygon points="2.5848,9.08454 2.2906,9.08454 2.2906,9.05464 2.2906,8.97614 2.2906,8.86564 2.2906,7.35164 2.2906,7.23614 2.5848,7.23614 2.5848,7.35164 2.5848,8.86564 2.5848,8.97614 2.5848,9.05464 "/><polygon points="-2.2747,9.08454 -2.569,9.08454 -2.569,9.05464 -2.569,8.97614 -2.569,8.86564 -2.569,7.35164 -2.569,7.23614 -2.2747,7.23614 -2.2747,7.35164 -2.2747,8.86564 -2.2747,8.97614 -2.2747,9.05464 "/><polygon points="-2.2747,-9.34506 -2.569,-9.34506 -2.569,-9.31516 -2.569,-9.23666 -2.569,-9.12626 -2.569,-7.61216 -2.569,-7.49676 -2.2747,-7.49676 -2.2747,-7.61216 -2.2747,-9.12626 -2.2747,-9.23666 -2.2747,-9.31516 "/><polygon points="2.5848,-9.34506 2.2906,-9.34506 2.2906,-9.31516 2.2906,-9.23666 2.2906,-9.12626 2.2906,-7.61216 2.2906,-7.49676 2.5848,-7.49676 2.5848,-7.61216 2.5848,-9.12626 2.5848,-9.23666 2.5848,-9.31516 "/><polygon points="2.3569,7.82184 2.3569,-8.01816 2.5553,-8.01816 2.5553,7.82184 "/><polygon points="-2.5119,7.82184 -2.5119,-8.01816 -2.3135,-8.01816 -2.3135,7.82184 "/><polygon points="-9.6948,8.08814 -9.6948,8.23654 -9.6948,8.34524 -9.6948,8.38504 9.7536,8.38504 9.7536,8.34524 9.7536,8.23654 9.7536,8.08814 9.7536,7.93964 9.7536,7.83094 9.7536,7.79124 -9.6948,7.79124 -9.6948,7.83094 -9.6948,7.93964 "/><polygon points="-9.6948,-8.22216 -9.6948,-8.07366 -9.6948,-7.96496 -9.6948,-7.92526 9.7536,-7.92526 9.7536,-7.96496 9.7536,-8.07366 9.7536,-8.22216 9.7536,-8.37056 9.7536,-8.47926 9.7536,-8.51906 -9.6948,-8.51906 -9.6948,-8.47926 -9.6948,-8.37056 "/><polygon points="9.5088,-8.25146 9.5088,-16.5018 9.5482,-16.6057 9.6558,-16.6818 9.8028,-16.7097 9.9498,-16.6818 10.0574,-16.6057 10.0968,-16.5018 10.0968,-8.25146 10.0968,8.07724 10.0968,16.3327 10.0574,16.4366 9.9498,16.5126 9.8028,16.5405 9.6558,16.5126 9.5482,16.4366 9.5088,16.3327 9.5088,8.07724 "/><polygon points="-10.0433,-8.25146 -10.0433,-16.5018 -10.0039,-16.6057 -9.8963,-16.6818 -9.7493,-16.7097 -9.6023,-16.6818 -9.4947,-16.6057 -9.4553,-16.5018 -9.4553,-8.25146 -9.4553,8.07724 -9.4553,16.3327 -9.4947,16.4366 -9.6023,16.5126 -9.7493,16.5405 -9.8963,16.5126 -10.0039,16.4366 -10.0433,16.3327 -10.0433,8.07724 "/><polygon points="8.9098,-8.00436 8.9098,-0.479759 3.2849,-0.479759 3.285,-8.00436 "/><polygon points="-8.8677,7.82184 -8.8677,0.297241 -3.2429,0.297241 -3.2429,7.82184 "/><polygon points="-8.8677,-8.00436 -8.8678,-0.479759 -3.2429,-0.479759 -3.2428,-8.00436 "/><polygon points="8.9098,7.82184 8.9098,0.297241 3.2849,0.297241 3.2849,7.82184 "/><polygon points="-9.2989,6.24534 -3.0361,6.24534 -3.0361,6.15864 -3.0361,5.98524 -3.0361,5.89864 -9.2989,5.89864 -9.2989,5.98524 -9.2989,6.15864 "/><polygon points="-8.8618,6.02784 -8.8618,0.161241 -8.9434,0.161241 -9.1065,0.161241 -9.1881,0.161241 -9.1881,6.02784 -9.1065,6.02784 -8.9434,6.02784 "/><polygon points="-9.3805,0.302141 -2.7029,0.302141 -2.7029,0.251341 -2.7029,0.128841 -2.7029,0.00624062 -2.7029,-0.0445594 -9.3805,-0.0445594 -9.3805,0.00624062 -9.3805,0.128841 -9.3805,0.251341 "/><polygon points="-3.0485,6.02784 -3.0485,0.161241 -3.1301,0.161241 -3.2932,0.161241 -3.3747,0.161241 -3.3747,6.02784 -3.2932,6.02784 -3.1301,6.02784 "/><polygon points="-9.2989,-6.42786 -3.0361,-6.42776 -3.0361,-6.34116 -3.0361,-6.16776 -3.0361,-6.08116 -9.2989,-6.08116 -9.2989,-6.16786 -9.2989,-6.34116 "/><polygon points="9.4225,0.302141 2.745,0.302141 2.745,0.251341 2.745,0.128841 2.745,0.00624062 2.745,-0.0445594 9.4225,-0.0445594 9.4225,0.00624062 9.4225,0.128841 9.4225,0.251341 "/><polygon points="-9.3805,-0.484759 -2.7029,-0.484659 -2.7029,-0.433859 -2.7029,-0.311359 -2.7029,-0.188759 -2.7029,-0.137959 -9.3805,-0.138059 -9.3805,-0.188759 -9.3805,-0.311359 -9.3805,-0.433959 "/><polygon points="-3.0485,-6.21036 -3.0485,-0.343759 -3.1301,-0.343759 -3.2932,-0.343759 -3.3748,-0.343759 -3.3747,-6.21036 -3.2932,-6.21036 -3.1301,-6.21036 "/><polygon points="9.341,-6.42776 3.0782,-6.42786 3.0782,-6.34116 3.0782,-6.16786 3.0782,-6.08116 9.341,-6.08116 9.341,-6.16776 9.341,-6.34116 "/><polygon points="8.9039,-6.21036 8.9039,-0.343759 8.9855,-0.343759 9.1486,-0.343759 9.2301,-0.343759 9.2302,-6.21036 9.1486,-6.21036 8.9855,-6.21036 "/><polygon points="9.4225,-0.484659 2.7449,-0.484759 2.7449,-0.433959 2.7449,-0.311359 2.7449,-0.188759 2.7449,-0.138059 9.4225,-0.137959 9.4225,-0.188759 9.4225,-0.311359 9.4225,-0.433859 "/><polygon points="3.0906,-6.21046 3.0906,-0.343859 3.1721,-0.343859 3.3352,-0.343859 3.4168,-0.343859 3.4168,-6.21046 3.3353,-6.21046 3.1722,-6.21046 "/><polygon points="9.341,6.24534 3.0782,6.24534 3.0782,6.15864 3.0782,5.98524 3.0782,5.89864 9.341,5.89864 9.341,5.98524 9.341,6.15864 "/><polygon points="3.0906,6.02784 3.0906,0.161241 3.1722,0.161241 3.3353,0.161241 3.4168,0.161241 3.4168,6.02784 3.3353,6.02784 3.1722,6.02784 "/><polygon points="8.9039,6.02784 8.9039,0.161241 8.9855,0.161241 9.1486,0.161241 9.2302,0.161241 9.2302,6.02784 9.1486,6.02784 8.9855,6.02784 "/><polygon points="-8.8618,-6.21046 -8.8619,-0.343859 -8.9434,-0.343859 -9.1066,-0.343859 -9.1881,-0.343859 -9.1881,-6.21046 -9.1065,-6.21046 -8.9434,-6.21046 "/></g></svg>